<?xml version="1.0" encoding="UTF-8" standalone="no"?>
<svg xmlns="http://www.w3.org/2000/svg" version="1.1" viewBox="0 0 1024 512">
<rect x="0" y="0" width="1024" height="512" fill="#ffffff" stroke="none"/>
<path d="m16 320c0 96 16 176 144 176 192 0 0-480 192-480 128 0 144 80 144 176 0 216-480-96-480 128z" fill="none" stroke="#ff0000" stroke-width="4"/>
<path d="m800 264c32 16 208 24.1 208-72 0-96-18-176-146-176-87 0-96 144-96 206 0 34-16 34-32 26-32-16-208-30-208 72 0 96 16 176 144 176 87 0 96-96 96-208 0-32 16-32 32-24z" fill="none" stroke="#0000ff" stroke-width="4"/>
<path d="m227 127v1.05h-9.91q0.141 2.23 1.34 3.4 1.21 1.16 3.35 1.16 1.24 0 2.4-0.305 1.17-0.305 2.32-0.914v2.04q-1.16 0.492-2.38 0.75t-2.47 0.258q-3.14 0-4.98-1.83-1.83-1.83-1.83-4.95 0-3.22 1.73-5.11 1.75-1.9 4.7-1.9 2.65 0 4.18 1.71 1.55 1.7 1.55 4.63zm-2.16-0.633q-0.0234-1.77-0.996-2.82-0.961-1.05-2.55-1.05-1.8 0-2.89 1.02-1.08 1.02-1.24 2.87l7.69-0.0117zm-24.8-5.39h2.29l4.1 11 4.1-11h2.29l-4.92 13.1h-2.93l-4.92-13.1zm-0.738 2.02q-0.363-0.211-0.797-0.305-0.422-0.105-0.938-0.105-1.83 0-2.81 1.2-0.973 1.18-0.973 3.41v6.91h-2.17v-13.1h2.17v2.04q0.68-1.2 1.77-1.77 1.09-0.586 2.65-0.586 0.223 0 0.492 0.0352 0.27 0.0234 0.598 0.082l0.0117 2.21zm-23.1 5.93v-7.95h2.16v7.86q0 1.86 0.727 2.8 0.727 0.926 2.18 0.926 1.75 0 2.75-1.11 1.02-1.11 1.02-3.04v-7.44h2.16v13.1h-2.16v-2.02q-0.785 1.2-1.83 1.78-1.03 0.574-2.4 0.574-2.26 0-3.43-1.41t-1.17-4.11zm5.43-8.26zm-8.98 0.82v2.02q-0.914-0.504-1.84-0.75-0.914-0.258-1.85-0.258-2.1 0-3.26 1.34-1.16 1.32-1.16 3.73 0 2.4 1.16 3.74 1.16 1.32 3.26 1.32 0.938 0 1.85-0.246 0.926-0.258 1.84-0.762v1.99q-0.902 0.422-1.88 0.633-0.961 0.211-2.05 0.211-2.96 0-4.71-1.86t-1.75-5.03q0-3.21 1.76-5.05 1.77-1.84 4.84-1.84 0.996 0 1.95 0.211 0.949 0.199 1.84 0.609zm-20.6 5.52v1.05h-9.91q0.141 2.23 1.34 3.4 1.21 1.16 3.35 1.16 1.24 0 2.4-0.305 1.17-0.305 2.32-0.914v2.04q-1.16 0.492-2.38 0.75t-2.47 0.258q-3.14 0-4.98-1.83-1.83-1.83-1.83-4.95 0-3.22 1.73-5.11 1.75-1.9 4.7-1.9 2.65 0 4.18 1.71 1.55 1.7 1.55 4.63zm-2.16-0.633q-0.0234-1.77-0.996-2.82-0.961-1.05-2.55-1.05-1.8 0-2.89 1.02-1.08 1.02-1.24 2.87l7.69-0.0117zm-15.7-10.5h2.16v18.2h-2.16v-18.2zm-13.1 16.3v6.96h-2.17v-18.1h2.17v1.99q0.68-1.17 1.71-1.73 1.04-0.574 2.48-0.574 2.39 0 3.88 1.9 1.5 1.9 1.5 4.99t-1.5 4.99q-1.49 1.9-3.88 1.9-1.44 0-2.48-0.562-1.03-0.574-1.71-1.75zm7.34-4.58q0-2.38-0.984-3.73-0.973-1.36-2.68-1.36t-2.7 1.36q-0.973 1.35-0.973 3.73t0.973 3.74q0.984 1.35 2.7 1.35 1.71 0 2.68-1.35 0.984-1.36 0.984-3.74zm-22.6-4.05q0.809-1.45 1.93-2.14 1.12-0.691 2.65-0.691 2.05 0 3.16 1.44 1.11 1.43 1.11 4.08v7.92h-2.17v-7.85q0-1.89-0.668-2.8-0.668-0.914-2.04-0.914-1.68 0-2.65 1.11-0.973 1.11-0.973 3.04v7.42h-2.17v-7.85q0-1.9-0.668-2.8-0.668-0.914-2.06-0.914-1.65 0-2.62 1.12-0.973 1.11-0.973 3.02v7.42h-2.17v-13.1h2.17v2.04q0.738-1.21 1.77-1.78 1.03-0.574 2.45-0.574 1.43 0 2.43 0.727 1.01 0.727 1.49 2.11zm-16.9-2.52h2.16v13.1h-2.16v-13.1zm0-5.11h2.16v2.73h-2.16v-2.73zm-4.15 5.5v2.04q-0.914-0.469-1.9-0.703-0.984-0.234-2.04-0.234-1.61 0-2.41 0.492-0.797 0.492-0.797 1.48 0 0.75 0.574 1.18 0.574 0.422 2.31 0.809l0.738 0.164q2.3 0.492 3.26 1.39 0.973 0.891 0.973 2.5 0 1.83-1.45 2.89-1.44 1.07-3.97 1.07-1.05 0-2.2-0.211-1.14-0.199-2.4-0.609v-2.23q1.2 0.621 2.36 0.938 1.16 0.305 2.3 0.305 1.52 0 2.34-0.516 0.82-0.527 0.82-1.48 0-0.879-0.598-1.35-0.586-0.469-2.59-0.902l-0.75-0.176q-2-0.422-2.89-1.29-0.891-0.879-0.891-2.4 0-1.85 1.31-2.86t3.73-1.01q1.2 0 2.25 0.176t1.95 0.527zm-18.1 5.2h6.32v1.92h-6.32v-1.92zm-3.23-0.387v7.92h-2.16v-7.85q0-1.86-0.727-2.79-0.727-0.926-2.18-0.926-1.75 0-2.75 1.11-1.01 1.11-1.01 3.04v7.42h-2.17v-13.1h2.17v2.04q0.773-1.18 1.82-1.77 1.05-0.586 2.43-0.586 2.26 0 3.42 1.41 1.16 1.39 1.16 4.11zm-20.5-3.69q-1.73 0-2.74 1.36-1.01 1.35-1.01 3.7 0 2.36 0.996 3.71 1.01 1.35 2.75 1.35 1.72 0 2.73-1.36t1.01-3.7q0-2.33-1.01-3.69-1.01-1.37-2.73-1.37zm0-1.83q2.81 0 4.42 1.83t1.61 5.06q0 3.22-1.61 5.06-1.61 1.83-4.42 1.83-2.82 0-4.43-1.83-1.59-1.84-1.59-5.06 0-3.23 1.59-5.06 1.61-1.83 4.43-1.83zm-22.9-4.05h3.19l7.76 14.6v-14.6h2.3v17.5h-3.19l-7.76-14.6v14.6h-2.3v-17.5z" fill="#cc0000" stroke="none"/>
<path d="m972 384v1.05h-9.91q0.141 2.23 1.34 3.4 1.21 1.16 3.35 1.16 1.24 0 2.4-0.305 1.17-0.305 2.32-0.914v2.04q-1.16 0.492-2.38 0.75t-2.47 0.258q-3.14 0-4.98-1.83-1.83-1.83-1.83-4.95 0-3.22 1.73-5.11 1.75-1.9 4.7-1.9 2.65 0 4.18 1.71 1.55 1.7 1.55 4.63zm-2.16-0.633q-0.0234-1.77-0.996-2.82-0.961-1.05-2.55-1.05-1.8 0-2.89 1.02-1.08 1.02-1.24 2.87l7.69-0.0117zm-24.8-5.39h2.29l4.1 11 4.1-11h2.29l-4.92 13.1h-2.93l-4.92-13.1zm-0.738 2.02q-0.363-0.211-0.797-0.305-0.422-0.105-0.938-0.105-1.83 0-2.81 1.2-0.973 1.18-0.973 3.41v6.91h-2.17v-13.1h2.17v2.04q0.68-1.2 1.77-1.77 1.09-0.586 2.65-0.586 0.223 0 0.492 0.0352 0.27 0.0234 0.598 0.082l0.0117 2.21zm-23.1 5.93v-7.95h2.16v7.86q0 1.86 0.727 2.8 0.727 0.926 2.18 0.926 1.75 0 2.75-1.11 1.02-1.11 1.02-3.04v-7.44h2.16v13.1h-2.16v-2.02q-0.785 1.2-1.83 1.78-1.03 0.574-2.4 0.574-2.26 0-3.43-1.41t-1.17-4.11zm5.43-8.26zm-8.98 0.82v2.02q-0.914-0.504-1.84-0.75-0.914-0.258-1.85-0.258-2.1 0-3.26 1.34-1.16 1.32-1.16 3.73 0 2.4 1.16 3.74 1.16 1.32 3.26 1.32 0.938 0 1.85-0.246 0.926-0.258 1.84-0.762v1.99q-0.902 0.422-1.88 0.633-0.961 0.211-2.05 0.211-2.96 0-4.71-1.86t-1.75-5.03q0-3.21 1.76-5.05 1.77-1.84 4.84-1.84 0.996 0 1.95 0.211 0.949 0.199 1.84 0.609zm-20.6 5.52v1.05h-9.91q0.141 2.23 1.34 3.4 1.21 1.16 3.35 1.16 1.24 0 2.4-0.305 1.17-0.305 2.32-0.914v2.04q-1.16 0.492-2.38 0.75t-2.47 0.258q-3.14 0-4.98-1.83-1.83-1.83-1.83-4.95 0-3.22 1.73-5.11 1.75-1.9 4.7-1.9 2.65 0 4.18 1.71 1.55 1.7 1.55 4.63zm-2.16-0.633q-0.0234-1.77-0.996-2.82-0.961-1.05-2.55-1.05-1.8 0-2.89 1.02-1.08 1.02-1.24 2.87l7.69-0.0117zm-15.7-10.5h2.16v18.2h-2.16v-18.2zm-13.1 16.3v6.96h-2.17v-18.1h2.17v1.99q0.68-1.17 1.71-1.73 1.04-0.574 2.48-0.574 2.39 0 3.88 1.9 1.5 1.9 1.5 4.99t-1.5 4.99q-1.49 1.9-3.88 1.9-1.44 0-2.48-0.562-1.03-0.574-1.71-1.75zm7.34-4.58q0-2.38-0.984-3.73-0.973-1.36-2.68-1.36t-2.7 1.36q-0.973 1.35-0.973 3.73t0.973 3.74q0.984 1.35 2.7 1.35 1.71 0 2.68-1.35 0.984-1.36 0.984-3.74zm-22.6-4.05q0.809-1.45 1.93-2.14 1.12-0.691 2.65-0.691 2.05 0 3.16 1.44 1.11 1.43 1.11 4.08v7.92h-2.17v-7.85q0-1.89-0.668-2.8-0.668-0.914-2.04-0.914-1.68 0-2.65 1.11-0.973 1.11-0.973 3.04v7.42h-2.17v-7.85q0-1.9-0.668-2.8-0.668-0.914-2.06-0.914-1.65 0-2.62 1.12-0.973 1.11-0.973 3.02v7.42h-2.17v-13.1h2.17v2.04q0.738-1.21 1.77-1.78 1.03-0.574 2.45-0.574 1.43 0 2.43 0.727 1.01 0.727 1.49 2.11zm-16.9-2.52h2.16v13.1h-2.16v-13.1zm0-5.11h2.16v2.73h-2.16v-2.73zm-4.65 1.31v2.31q-1.35-0.645-2.54-0.961-1.2-0.316-2.31-0.316-1.93 0-2.99 0.75-1.04 0.75-1.04 2.13 0 1.16 0.691 1.76 0.703 0.586 2.65 0.949l1.43 0.293q2.65 0.504 3.9 1.78 1.27 1.27 1.27 3.4 0 2.54-1.71 3.86-1.7 1.31-4.99 1.31-1.24 0-2.65-0.281-1.39-0.281-2.89-0.832v-2.44q1.44 0.809 2.82 1.22 1.38 0.41 2.72 0.41 2.03 0 3.13-0.797t1.1-2.27q0-1.29-0.797-2.02-0.785-0.727-2.59-1.09l-1.44-0.281q-2.65-0.527-3.83-1.65t-1.18-3.13q0-2.32 1.63-3.66 1.64-1.34 4.51-1.34 1.23 0 2.51 0.223t2.61 0.668z" fill="#0000cc" stroke="none"/>
</svg>
